<?xml version="1.0" encoding="utf-8" standalone="no"?>
<!DOCTYPE svg PUBLIC "-//W3C//DTD SVG 1.1//EN"
  "http://www.w3.org/Graphics/SVG/1.1/DTD/svg11.dtd">
<svg xmlns:xlink="http://www.w3.org/1999/xlink" width="784.8pt" height="640.558125pt" viewBox="0 0 784.8 640.558125" xmlns="http://www.w3.org/2000/svg" version="1.1">
 <metadata>
  <rdf:RDF xmlns:dc="http://purl.org/dc/elements/1.1/" xmlns:cc="http://creativecommons.org/ns#" xmlns:rdf="http://www.w3.org/1999/02/22-rdf-syntax-ns#">
   <cc:Work>
    <dc:type rdf:resource="http://purl.org/dc/dcmitype/StillImage"/>
    <dc:date>2026-06-24T11:18:12.799395</dc:date>
    <dc:format>image/svg+xml</dc:format>
    <dc:creator>
     <cc:Agent>
      <dc:title>Matplotlib v3.11.0, https://matplotlib.org/</dc:title>
     </cc:Agent>
    </dc:creator>
   </cc:Work>
  </rdf:RDF>
 </metadata>
 <defs>
  <style type="text/css">*{stroke-linejoin: round; stroke-linecap: butt}</style>
 </defs>
 <g id="figure_1">
  <g id="patch_1">
   <path d="M 0 640.558125 
L 784.8 640.558125 
L 784.8 0 
L 0 0 
z
" style="fill: #ffffff"/>
  </g>
  <g id="axes_1">
   <g id="LineCollection_1">
    <path d="M 265.742858 361.07352 
L 297.558426 314.569273 
" clip-path="url(#pd8b3066642)" style="fill: none; stroke: #94a3b8; stroke-opacity: 0.5; stroke-width: 2.241964"/>
    <path d="M 265.742858 361.07352 
L 268.762081 425.870915 
" clip-path="url(#pd8b3066642)" style="fill: none; stroke: #94a3b8; stroke-opacity: 0.5; stroke-width: 1.707491"/>
    <path d="M 265.742858 361.07352 
L 409.139218 370.378677 
" clip-path="url(#pd8b3066642)" style="fill: none; stroke: #94a3b8; stroke-opacity: 0.5; stroke-width: 1.524491"/>
    <path d="M 265.742858 361.07352 
L 255.656437 233.228196 
" clip-path="url(#pd8b3066642)" style="fill: none; stroke: #94a3b8; stroke-opacity: 0.5; stroke-width: 1.449701"/>
    <path d="M 265.742858 361.07352 
L 418.205114 319.168279 
" clip-path="url(#pd8b3066642)" style="fill: none; stroke: #94a3b8; stroke-opacity: 0.5; stroke-width: 0.96702"/>
    <path d="M 265.742858 361.07352 
L 355.618842 423.880743 
" clip-path="url(#pd8b3066642)" style="fill: none; stroke: #94a3b8; stroke-opacity: 0.5; stroke-width: 0.939729"/>
    <path d="M 265.742858 361.07352 
L 204.703847 316.177169 
" clip-path="url(#pd8b3066642)" style="fill: none; stroke: #94a3b8; stroke-opacity: 0.5; stroke-width: 0.786523"/>
    <path d="M 265.742858 361.07352 
L 186.65104 388.894481 
" clip-path="url(#pd8b3066642)" style="fill: none; stroke: #94a3b8; stroke-opacity: 0.5; stroke-width: 0.693896"/>
    <path d="M 265.742858 361.07352 
L 325.503715 362.985759 
" clip-path="url(#pd8b3066642)" style="fill: none; stroke: #94a3b8; stroke-opacity: 0.5; stroke-width: 0.651587"/>
    <path d="M 265.742858 361.07352 
L 152.974312 338.502601 
" clip-path="url(#pd8b3066642)" style="fill: none; stroke: #94a3b8; stroke-opacity: 0.5; stroke-width: 0.635"/>
    <path d="M 355.618842 423.880743 
L 409.139218 370.378677 
" clip-path="url(#pd8b3066642)" style="fill: none; stroke: #94a3b8; stroke-opacity: 0.5; stroke-width: 2.267581"/>
    <path d="M 355.618842 423.880743 
L 297.558426 314.569273 
" clip-path="url(#pd8b3066642)" style="fill: none; stroke: #94a3b8; stroke-opacity: 0.5; stroke-width: 1.909352"/>
    <path d="M 355.618842 423.880743 
L 268.762081 425.870915 
" clip-path="url(#pd8b3066642)" style="fill: none; stroke: #94a3b8; stroke-opacity: 0.5; stroke-width: 1.909352"/>
    <path d="M 355.618842 423.880743 
L 418.205114 319.168279 
" clip-path="url(#pd8b3066642)" style="fill: none; stroke: #94a3b8; stroke-opacity: 0.5; stroke-width: 1.267623"/>
    <path d="M 355.618842 423.880743 
L 186.65104 388.894481 
" clip-path="url(#pd8b3066642)" style="fill: none; stroke: #94a3b8; stroke-opacity: 0.5; stroke-width: 1.014629"/>
    <path d="M 355.618842 423.880743 
L 489.576633 479.755018 
" clip-path="url(#pd8b3066642)" style="fill: none; stroke: #94a3b8; stroke-opacity: 0.5; stroke-width: 1.014629"/>
    <path d="M 355.618842 423.880743 
L 607.350651 464.289695 
" clip-path="url(#pd8b3066642)" style="fill: none; stroke: #94a3b8; stroke-opacity: 0.5; stroke-width: 0.999712"/>
    <path d="M 355.618842 423.880743 
L 152.974312 338.502601 
" clip-path="url(#pd8b3066642)" style="fill: none; stroke: #94a3b8; stroke-opacity: 0.5; stroke-width: 0.918926"/>
    <path d="M 355.618842 423.880743 
L 325.503715 362.985759 
" clip-path="url(#pd8b3066642)" style="fill: none; stroke: #94a3b8; stroke-opacity: 0.5; stroke-width: 0.774244"/>
    <path d="M 355.618842 423.880743 
L 445.52646 449.604596 
" clip-path="url(#pd8b3066642)" style="fill: none; stroke: #94a3b8; stroke-opacity: 0.5; stroke-width: 0.738205"/>
    <path d="M 74.052893 452.203633 
L 152.974312 338.502601 
" clip-path="url(#pd8b3066642)" style="fill: none; stroke: #94a3b8; stroke-opacity: 0.5; stroke-width: 0.941879"/>
    <path d="M 74.052893 452.203633 
L 186.65104 388.894481 
" clip-path="url(#pd8b3066642)" style="fill: none; stroke: #94a3b8; stroke-opacity: 0.5; stroke-width: 0.770292"/>
    <path d="M 74.052893 452.203633 
L 268.762081 425.870915 
" clip-path="url(#pd8b3066642)" style="fill: none; stroke: #94a3b8; stroke-opacity: 0.5; stroke-width: 0.70435"/>
    <path d="M 74.052893 452.203633 
L 325.503715 362.985759 
" clip-path="url(#pd8b3066642)" style="fill: none; stroke: #94a3b8; stroke-opacity: 0.5; stroke-width: 0.608647"/>
    <path d="M 186.65104 388.894481 
L 152.974312 338.502601 
" clip-path="url(#pd8b3066642)" style="fill: none; stroke: #94a3b8; stroke-opacity: 0.5; stroke-width: 2.020439"/>
    <path d="M 186.65104 388.894481 
L 268.762081 425.870915 
" clip-path="url(#pd8b3066642)" style="fill: none; stroke: #94a3b8; stroke-opacity: 0.5; stroke-width: 1.852284"/>
    <path d="M 186.65104 388.894481 
L 297.558426 314.569273 
" clip-path="url(#pd8b3066642)" style="fill: none; stroke: #94a3b8; stroke-opacity: 0.5; stroke-width: 1.674515"/>
    <path d="M 186.65104 388.894481 
L 288.62096 258.456991 
" clip-path="url(#pd8b3066642)" style="fill: none; stroke: #94a3b8; stroke-opacity: 0.5; stroke-width: 1.070669"/>
    <path d="M 186.65104 388.894481 
L 157.47238 258.909071 
" clip-path="url(#pd8b3066642)" style="fill: none; stroke: #94a3b8; stroke-opacity: 0.5; stroke-width: 0.854226"/>
    <path d="M 186.65104 388.894481 
L 325.503715 362.985759 
" clip-path="url(#pd8b3066642)" style="fill: none; stroke: #94a3b8; stroke-opacity: 0.5; stroke-width: 0.803723"/>
    <path d="M 152.974312 338.502601 
L 288.62096 258.456991 
" clip-path="url(#pd8b3066642)" style="fill: none; stroke: #94a3b8; stroke-opacity: 0.5; stroke-width: 1.543033"/>
    <path d="M 152.974312 338.502601 
L 204.703847 316.177169 
" clip-path="url(#pd8b3066642)" style="fill: none; stroke: #94a3b8; stroke-opacity: 0.5; stroke-width: 1.241377"/>
    <path d="M 152.974312 338.502601 
L 255.656437 233.228196 
" clip-path="url(#pd8b3066642)" style="fill: none; stroke: #94a3b8; stroke-opacity: 0.5; stroke-width: 1.189541"/>
    <path d="M 152.974312 338.502601 
L 157.47238 258.909071 
" clip-path="url(#pd8b3066642)" style="fill: none; stroke: #94a3b8; stroke-opacity: 0.5; stroke-width: 1.096695"/>
    <path d="M 152.974312 338.502601 
L 325.503715 362.985759 
" clip-path="url(#pd8b3066642)" style="fill: none; stroke: #94a3b8; stroke-opacity: 0.5; stroke-width: 0.823223"/>
    <path d="M 157.47238 258.909071 
L 268.762081 425.870915 
" clip-path="url(#pd8b3066642)" style="fill: none; stroke: #94a3b8; stroke-opacity: 0.5; stroke-width: 0.82608"/>
    <path d="M 157.47238 258.909071 
L 288.62096 258.456991 
" clip-path="url(#pd8b3066642)" style="fill: none; stroke: #94a3b8; stroke-opacity: 0.5; stroke-width: 0.730377"/>
    <path d="M 157.47238 258.909071 
L 297.558426 314.569273 
" clip-path="url(#pd8b3066642)" style="fill: none; stroke: #94a3b8; stroke-opacity: 0.5; stroke-width: 0.681398"/>
    <path d="M 325.503715 362.985759 
L 288.62096 258.456991 
" clip-path="url(#pd8b3066642)" style="fill: none; stroke: #94a3b8; stroke-opacity: 0.5; stroke-width: 1.411786"/>
    <path d="M 325.503715 362.985759 
L 297.558426 314.569273 
" clip-path="url(#pd8b3066642)" style="fill: none; stroke: #94a3b8; stroke-opacity: 0.5; stroke-width: 1.357696"/>
    <path d="M 325.503715 362.985759 
L 268.762081 425.870915 
" clip-path="url(#pd8b3066642)" style="fill: none; stroke: #94a3b8; stroke-opacity: 0.5; stroke-width: 1.189541"/>
    <path d="M 325.503715 362.985759 
L 409.139218 370.378677 
" clip-path="url(#pd8b3066642)" style="fill: none; stroke: #94a3b8; stroke-opacity: 0.5; stroke-width: 0.910837"/>
    <path d="M 325.503715 362.985759 
L 566.214417 335.854154 
" clip-path="url(#pd8b3066642)" style="fill: none; stroke: #94a3b8; stroke-opacity: 0.5; stroke-width: 0.901964"/>
    <path d="M 325.503715 362.985759 
L 255.656437 233.228196 
" clip-path="url(#pd8b3066642)" style="fill: none; stroke: #94a3b8; stroke-opacity: 0.5; stroke-width: 0.893116"/>
    <path d="M 325.503715 362.985759 
L 545.044504 392.145571 
" clip-path="url(#pd8b3066642)" style="fill: none; stroke: #94a3b8; stroke-opacity: 0.5; stroke-width: 0.730377"/>
    <path d="M 325.503715 362.985759 
L 418.205114 319.168279 
" clip-path="url(#pd8b3066642)" style="fill: none; stroke: #94a3b8; stroke-opacity: 0.5; stroke-width: 0.633026"/>
    <path d="M 297.558426 314.569273 
L 469.340038 221.815419 
" clip-path="url(#pd8b3066642)" style="fill: none; stroke: #94a3b8; stroke-opacity: 0.5; stroke-width: 1.317811"/>
    <path d="M 297.558426 314.569273 
L 204.703847 316.177169 
" clip-path="url(#pd8b3066642)" style="fill: none; stroke: #94a3b8; stroke-opacity: 0.5; stroke-width: 0.944952"/>
    <path d="M 469.340038 221.815419 
L 418.205114 319.168279 
" clip-path="url(#pd8b3066642)" style="fill: none; stroke: #94a3b8; stroke-opacity: 0.5; stroke-width: 1.003765"/>
    <path d="M 469.340038 221.815419 
L 288.62096 258.456991 
" clip-path="url(#pd8b3066642)" style="fill: none; stroke: #94a3b8; stroke-opacity: 0.5; stroke-width: 0.951493"/>
    <path d="M 469.340038 221.815419 
L 409.139218 370.378677 
" clip-path="url(#pd8b3066642)" style="fill: none; stroke: #94a3b8; stroke-opacity: 0.5; stroke-width: 0.906742"/>
    <path d="M 469.340038 221.815419 
L 347.322091 75.342257 
" clip-path="url(#pd8b3066642)" style="fill: none; stroke: #94a3b8; stroke-opacity: 0.5; stroke-width: 0.779348"/>
    <path d="M 469.340038 221.815419 
L 710.747107 344.062555 
" clip-path="url(#pd8b3066642)" style="fill: none; stroke: #94a3b8; stroke-opacity: 0.5; stroke-width: 0.654302"/>
    <path d="M 710.747107 344.062555 
L 607.350651 464.289695 
" clip-path="url(#pd8b3066642)" style="fill: none; stroke: #94a3b8; stroke-opacity: 0.5; stroke-width: 1.05693"/>
    <path d="M 710.747107 344.062555 
L 545.044504 392.145571 
" clip-path="url(#pd8b3066642)" style="fill: none; stroke: #94a3b8; stroke-opacity: 0.5; stroke-width: 0.923429"/>
    <path d="M 566.214417 335.854154 
L 545.044504 392.145571 
" clip-path="url(#pd8b3066642)" style="fill: none; stroke: #94a3b8; stroke-opacity: 0.5; stroke-width: 1.376158"/>
    <path d="M 566.214417 335.854154 
L 418.205114 319.168279 
" clip-path="url(#pd8b3066642)" style="fill: none; stroke: #94a3b8; stroke-opacity: 0.5; stroke-width: 0.790613"/>
    <path d="M 566.214417 335.854154 
L 409.139218 370.378677 
" clip-path="url(#pd8b3066642)" style="fill: none; stroke: #94a3b8; stroke-opacity: 0.5; stroke-width: 0.757599"/>
    <path d="M 566.214417 335.854154 
L 607.350651 464.289695 
" clip-path="url(#pd8b3066642)" style="fill: none; stroke: #94a3b8; stroke-opacity: 0.5; stroke-width: 0.614937"/>
    <path d="M 347.322091 75.342257 
L 418.205114 319.168279 
" clip-path="url(#pd8b3066642)" style="fill: none; stroke: #94a3b8; stroke-opacity: 0.5; stroke-width: 0.722256"/>
    <path d="M 409.139218 370.378677 
L 418.205114 319.168279 
" clip-path="url(#pd8b3066642)" style="fill: none; stroke: #94a3b8; stroke-opacity: 0.5; stroke-width: 3"/>
    <path d="M 409.139218 370.378677 
L 445.52646 449.604596 
" clip-path="url(#pd8b3066642)" style="fill: none; stroke: #94a3b8; stroke-opacity: 0.5; stroke-width: 1.951026"/>
    <path d="M 409.139218 370.378677 
L 489.576633 479.755018 
" clip-path="url(#pd8b3066642)" style="fill: none; stroke: #94a3b8; stroke-opacity: 0.5; stroke-width: 1.302965"/>
    <path d="M 409.139218 370.378677 
L 204.703847 316.177169 
" clip-path="url(#pd8b3066642)" style="fill: none; stroke: #94a3b8; stroke-opacity: 0.5; stroke-width: 1.233288"/>
    <path d="M 409.139218 370.378677 
L 405.698314 253.151492 
" clip-path="url(#pd8b3066642)" style="fill: none; stroke: #94a3b8; stroke-opacity: 0.5; stroke-width: 0.740557"/>
    <path d="M 280.534911 138.03457 
L 288.62096 258.456991 
" clip-path="url(#pd8b3066642)" style="fill: none; stroke: #94a3b8; stroke-opacity: 0.5; stroke-width: 2.324649"/>
    <path d="M 280.534911 138.03457 
L 255.656437 233.228196 
" clip-path="url(#pd8b3066642)" style="fill: none; stroke: #94a3b8; stroke-opacity: 0.5; stroke-width: 1.700541"/>
    <path d="M 280.534911 138.03457 
L 405.698314 253.151492 
" clip-path="url(#pd8b3066642)" style="fill: none; stroke: #94a3b8; stroke-opacity: 0.5; stroke-width: 0.613018"/>
    <path d="M 545.044504 392.145571 
L 445.52646 449.604596 
" clip-path="url(#pd8b3066642)" style="fill: none; stroke: #94a3b8; stroke-opacity: 0.5; stroke-width: 2.185862"/>
    <path d="M 545.044504 392.145571 
L 489.576633 479.755018 
" clip-path="url(#pd8b3066642)" style="fill: none; stroke: #94a3b8; stroke-opacity: 0.5; stroke-width: 1.663735"/>
    <path d="M 545.044504 392.145571 
L 405.698314 253.151492 
" clip-path="url(#pd8b3066642)" style="fill: none; stroke: #94a3b8; stroke-opacity: 0.5; stroke-width: 1.045287"/>
    <path d="M 268.762081 425.870915 
L 445.52646 449.604596 
" clip-path="url(#pd8b3066642)" style="fill: none; stroke: #94a3b8; stroke-opacity: 0.5; stroke-width: 1.383986"/>
    <path d="M 268.762081 425.870915 
L 204.703847 316.177169 
" clip-path="url(#pd8b3066642)" style="fill: none; stroke: #94a3b8; stroke-opacity: 0.5; stroke-width: 0.944952"/>
    <path d="M 268.762081 425.870915 
L 405.698314 253.151492 
" clip-path="url(#pd8b3066642)" style="fill: none; stroke: #94a3b8; stroke-opacity: 0.5; stroke-width: 0.70799"/>
    <path d="M 268.762081 425.870915 
L 489.576633 479.755018 
" clip-path="url(#pd8b3066642)" style="fill: none; stroke: #94a3b8; stroke-opacity: 0.5; stroke-width: 0.591243"/>
    <path d="M 288.62096 258.456991 
L 405.698314 253.151492 
" clip-path="url(#pd8b3066642)" style="fill: none; stroke: #94a3b8; stroke-opacity: 0.5; stroke-width: 1.06824"/>
    <path d="M 288.62096 258.456991 
L 204.703847 316.177169 
" clip-path="url(#pd8b3066642)" style="fill: none; stroke: #94a3b8; stroke-opacity: 0.5; stroke-width: 0.730377"/>
    <path d="M 288.62096 258.456991 
L 445.52646 449.604596 
" clip-path="url(#pd8b3066642)" style="fill: none; stroke: #94a3b8; stroke-opacity: 0.5; stroke-width: 0.602371"/>
    <path d="M 418.205114 319.168279 
L 445.52646 449.604596 
" clip-path="url(#pd8b3066642)" style="fill: none; stroke: #94a3b8; stroke-opacity: 0.5; stroke-width: 1.825529"/>
    <path d="M 418.205114 319.168279 
L 255.656437 233.228196 
" clip-path="url(#pd8b3066642)" style="fill: none; stroke: #94a3b8; stroke-opacity: 0.5; stroke-width: 1.538238"/>
    <path d="M 418.205114 319.168279 
L 489.576633 479.755018 
" clip-path="url(#pd8b3066642)" style="fill: none; stroke: #94a3b8; stroke-opacity: 0.5; stroke-width: 1.210555"/>
    <path d="M 405.698314 253.151492 
L 255.656437 233.228196 
" clip-path="url(#pd8b3066642)" style="fill: none; stroke: #94a3b8; stroke-opacity: 0.5; stroke-width: 0.632681"/>
    <path d="M 204.703847 316.177169 
L 255.656437 233.228196 
" clip-path="url(#pd8b3066642)" style="fill: none; stroke: #94a3b8; stroke-opacity: 0.5; stroke-width: 0.710115"/>
    <path d="M 500.982024 580.333993 
L 445.52646 449.604596 
" clip-path="url(#pd8b3066642)" style="fill: none; stroke: #94a3b8; stroke-opacity: 0.5; stroke-width: 2.348601"/>
    <path d="M 500.982024 580.333993 
L 489.576633 479.755018 
" clip-path="url(#pd8b3066642)" style="fill: none; stroke: #94a3b8; stroke-opacity: 0.5; stroke-width: 2.291053"/>
    <path d="M 489.576633 479.755018 
L 607.350651 464.289695 
" clip-path="url(#pd8b3066642)" style="fill: none; stroke: #94a3b8; stroke-opacity: 0.5; stroke-width: 1.444772"/>
    <path d="M 489.576633 479.755018 
L 445.52646 449.604596 
" clip-path="url(#pd8b3066642)" style="fill: none; stroke: #94a3b8; stroke-opacity: 0.5; stroke-width: 1.224458"/>
    <path d="M 445.52646 449.604596 
L 607.350651 464.289695 
" clip-path="url(#pd8b3066642)" style="fill: none; stroke: #94a3b8; stroke-opacity: 0.5; stroke-width: 0.648791"/>
   </g>
   <g id="PathCollection_1">
    <path d="M 265.742858 383.909894 
C 271.799136 383.909894 277.608179 381.50371 281.890614 377.221275 
C 286.173048 372.93884 288.579233 367.129797 288.579233 361.07352 
C 288.579233 355.017242 286.173048 349.208199 281.890614 344.925764 
C 277.608179 340.64333 271.799136 338.237145 265.742858 338.237145 
C 259.686581 338.237145 253.877538 340.64333 249.595103 344.925764 
C 245.312668 349.208199 242.906484 355.017242 242.906484 361.07352 
C 242.906484 367.129797 245.312668 372.93884 249.595103 377.221275 
C 253.877538 381.50371 259.686581 383.909894 265.742858 383.909894 
z
" clip-path="url(#pd8b3066642)" style="fill: #185fa5; stroke: #ffffff; stroke-width: 1.5"/>
    <path d="M 355.618842 442.211046 
C 360.480095 442.211046 365.142898 440.279649 368.580323 436.842224 
C 372.017748 433.404799 373.949145 428.741996 373.949145 423.880743 
C 373.949145 419.01949 372.017748 414.356687 368.580323 410.919262 
C 365.142898 407.481837 360.480095 405.55044 355.618842 405.55044 
C 350.757589 405.55044 346.094785 407.481837 342.65736 410.919262 
C 339.219935 414.356687 337.288539 419.01949 337.288539 423.880743 
C 337.288539 428.741996 339.219935 433.404799 342.65736 436.842224 
C 346.094785 440.279649 350.757589 442.211046 355.618842 442.211046 
z
" clip-path="url(#pd8b3066642)" style="fill: #185fa5; stroke: #ffffff; stroke-width: 1.5"/>
    <path d="M 74.052893 482.944485 
C 82.205462 482.944485 90.025221 479.705435 95.789958 473.940698 
C 101.554695 468.175961 104.793745 460.356202 104.793745 452.203633 
C 104.793745 444.051063 101.554695 436.231305 95.789958 430.466568 
C 90.025221 424.70183 82.205462 421.46278 74.052893 421.46278 
C 65.900323 421.46278 58.080564 424.70183 52.315827 430.466568 
C 46.55109 436.231305 43.31204 444.051063 43.31204 452.203633 
C 43.31204 460.356202 46.55109 468.175961 52.315827 473.940698 
C 58.080564 479.705435 65.900323 482.944485 74.052893 482.944485 
z
" clip-path="url(#pd8b3066642)" style="fill: #185fa5; stroke: #ffffff; stroke-width: 1.5"/>
    <path d="M 186.65104 412.5588 
C 192.926891 412.5588 198.946544 410.065378 203.384241 405.627681 
C 207.821937 401.189985 210.315359 395.170331 210.315359 388.894481 
C 210.315359 382.61863 207.821937 376.598977 203.384241 372.16128 
C 198.946544 367.723583 192.926891 365.230162 186.65104 365.230162 
C 180.375189 365.230162 174.355536 367.723583 169.91784 372.16128 
C 165.480143 376.598977 162.986721 382.61863 162.986721 388.894481 
C 162.986721 395.170331 165.480143 401.189985 169.91784 405.627681 
C 174.355536 410.065378 180.375189 412.5588 186.65104 412.5588 
z
" clip-path="url(#pd8b3066642)" style="fill: #185fa5; stroke: #ffffff; stroke-width: 1.5"/>
    <path d="M 152.974312 354.377109 
C 157.184281 354.377109 161.222387 352.70447 164.199284 349.727573 
C 167.176182 346.750676 168.84882 342.712569 168.84882 338.502601 
C 168.84882 334.292632 167.176182 330.254526 164.199284 327.277629 
C 161.222387 324.300731 157.184281 322.628093 152.974312 322.628093 
C 148.764343 322.628093 144.726237 324.300731 141.74934 327.277629 
C 138.772443 330.254526 137.099804 334.292632 137.099804 338.502601 
C 137.099804 342.712569 138.772443 346.750676 141.74934 349.727573 
C 144.726237 352.70447 148.764343 354.377109 152.974312 354.377109 
z
" clip-path="url(#pd8b3066642)" style="fill: #185fa5; stroke: #ffffff; stroke-width: 1.5"/>
    <path d="M 157.47238 289.763568 
C 165.655088 289.763568 173.503755 286.512544 179.289804 280.726495 
C 185.075853 274.940447 188.326877 267.091779 188.326877 258.909071 
C 188.326877 250.726363 185.075853 242.877695 179.289804 237.091647 
C 173.503755 231.305598 165.655088 228.054574 157.47238 228.054574 
C 149.289671 228.054574 141.441004 231.305598 135.654956 237.091647 
C 129.868907 242.877695 126.617883 250.726363 126.617883 258.909071 
C 126.617883 267.091779 129.868907 274.940447 135.654956 280.726495 
C 141.441004 286.512544 149.289671 289.763568 157.47238 289.763568 
z
" clip-path="url(#pd8b3066642)" style="fill: #185fa5; stroke: #ffffff; stroke-width: 1.5"/>
    <path d="M 325.503715 389.310652 
C 332.485158 389.310652 339.181599 386.536895 344.118225 381.600269 
C 349.054851 376.663643 351.828608 369.967202 351.828608 362.985759 
C 351.828608 356.004315 349.054851 349.307874 344.118225 344.371248 
C 339.181599 339.434622 332.485158 336.660865 325.503715 336.660865 
C 318.522271 336.660865 311.82583 339.434622 306.889204 344.371248 
C 301.952578 349.307874 299.178821 356.004315 299.178821 362.985759 
C 299.178821 369.967202 301.952578 376.663643 306.889204 381.600269 
C 311.82583 386.536895 318.522271 389.310652 325.503715 389.310652 
z
" clip-path="url(#pd8b3066642)" style="fill: #185fa5; stroke: #ffffff; stroke-width: 1.5"/>
    <path d="M 297.558426 323.734425 
C 299.989052 323.734425 302.320454 322.768727 304.039166 321.050014 
C 305.757879 319.331302 306.723577 316.9999 306.723577 314.569273 
C 306.723577 312.138647 305.757879 309.807245 304.039166 308.088533 
C 302.320454 306.36982 299.989052 305.404122 297.558426 305.404122 
C 295.127799 305.404122 292.796398 306.36982 291.077685 308.088533 
C 289.358972 309.807245 288.393274 312.138647 288.393274 314.569273 
C 288.393274 316.9999 289.358972 319.331302 291.077685 321.050014 
C 292.796398 322.768727 295.127799 323.734425 297.558426 323.734425 
z
" clip-path="url(#pd8b3066642)" style="fill: #185fa5; stroke: #ffffff; stroke-width: 1.5"/>
    <path d="M 469.340038 247.603013 
C 476.178988 247.603013 482.738753 244.885869 487.574621 240.050001 
C 492.410489 235.214133 495.127632 228.654368 495.127632 221.815419 
C 495.127632 214.976469 492.410489 208.416704 487.574621 203.580836 
C 482.738753 198.744968 476.178988 196.027825 469.340038 196.027825 
C 462.501088 196.027825 455.941324 198.744968 451.105456 203.580836 
C 446.269588 208.416704 443.552444 214.976469 443.552444 221.815419 
C 443.552444 228.654368 446.269588 235.214133 451.105456 240.050001 
C 455.941324 244.885869 462.501088 247.603013 469.340038 247.603013 
z
" clip-path="url(#pd8b3066642)" style="fill: #185fa5; stroke: #ffffff; stroke-width: 1.5"/>
    <path d="M 710.747107 370.717761 
C 717.816151 370.717761 724.596616 367.9092 729.595184 362.910632 
C 734.593753 357.912063 737.402313 351.131598 737.402313 344.062555 
C 737.402313 336.993511 734.593753 330.213046 729.595184 325.214478 
C 724.596616 320.215909 717.816151 317.407349 710.747107 317.407349 
C 703.678064 317.407349 696.897599 320.215909 691.899031 325.214478 
C 686.900462 330.213046 684.091902 336.993511 684.091902 344.062555 
C 684.091902 351.131598 686.900462 357.912063 691.899031 362.910632 
C 696.897599 367.9092 703.678064 370.717761 710.747107 370.717761 
z
" clip-path="url(#pd8b3066642)" style="fill: #185fa5; stroke: #ffffff; stroke-width: 1.5"/>
    <path d="M 566.214417 364.47233 
C 573.804046 364.47233 581.083846 361.456939 586.450524 356.090261 
C 591.817202 350.723582 594.832594 343.443783 594.832594 335.854154 
C 594.832594 328.264525 591.817202 320.984726 586.450524 315.618048 
C 581.083846 310.25137 573.804046 307.235978 566.214417 307.235978 
C 558.624788 307.235978 551.344989 310.25137 545.978311 315.618048 
C 540.611633 320.984726 537.596241 328.264525 537.596241 335.854154 
C 537.596241 343.443783 540.611633 350.723582 545.978311 356.090261 
C 551.344989 361.456939 558.624788 364.47233 566.214417 364.47233 
z
" clip-path="url(#pd8b3066642)" style="fill: #185fa5; stroke: #ffffff; stroke-width: 1.5"/>
    <path d="M 347.322091 96.672986 
C 352.979067 96.672986 358.405109 94.425446 362.405195 90.42536 
C 366.40528 86.425275 368.65282 80.999233 368.65282 75.342257 
C 368.65282 69.685282 366.40528 64.25924 362.405195 60.259154 
C 358.405109 56.259068 352.979067 54.011528 347.322091 54.011528 
C 341.665116 54.011528 336.239074 56.259068 332.238988 60.259154 
C 328.238903 64.25924 325.991362 69.685282 325.991362 75.342257 
C 325.991362 80.999233 328.238903 86.425275 332.238988 90.42536 
C 336.239074 94.425446 341.665116 96.672986 347.322091 96.672986 
z
" clip-path="url(#pd8b3066642)" style="fill: #185fa5; stroke: #ffffff; stroke-width: 1.5"/>
    <path d="M 409.139218 381.446649 
C 412.074478 381.446649 414.889913 380.280458 416.965455 378.204915 
C 419.040998 376.129373 420.207189 373.313938 420.207189 370.378677 
C 420.207189 367.443417 419.040998 364.627982 416.965455 362.552439 
C 414.889913 360.476897 412.074478 359.310705 409.139218 359.310705 
C 406.203957 359.310705 403.388522 360.476897 401.31298 362.552439 
C 399.237437 364.627982 398.071246 367.443417 398.071246 370.378677 
C 398.071246 373.313938 399.237437 376.129373 401.31298 378.204915 
C 403.388522 380.280458 406.203957 381.446649 409.139218 381.446649 
z
" clip-path="url(#pd8b3066642)" style="fill: #a32d2d; stroke: #ffffff; stroke-width: 1.5"/>
    <path d="M 280.534911 152.03457 
C 284.247755 152.03457 287.809029 150.559442 290.434406 147.934065 
C 293.059783 145.308689 294.534911 141.747414 294.534911 138.03457 
C 294.534911 134.321727 293.059783 130.760452 290.434406 128.135076 
C 287.809029 125.509699 284.247755 124.03457 280.534911 124.03457 
C 276.822068 124.03457 273.260793 125.509699 270.635416 128.135076 
C 268.01004 130.760452 266.534911 134.321727 266.534911 138.03457 
C 266.534911 141.747414 268.01004 145.308689 270.635416 147.934065 
C 273.260793 150.559442 276.822068 152.03457 280.534911 152.03457 
z
" clip-path="url(#pd8b3066642)" style="fill: #a32d2d; stroke: #ffffff; stroke-width: 1.5"/>
    <path d="M 545.044504 399.859195 
C 547.090181 399.859195 549.052348 399.046439 550.49886 397.599927 
C 551.945372 396.153415 552.758128 394.191248 552.758128 392.145571 
C 552.758128 390.099894 551.945372 388.137727 550.49886 386.691215 
C 549.052348 385.244703 547.090181 384.431947 545.044504 384.431947 
C 542.998827 384.431947 541.03666 385.244703 539.590148 386.691215 
C 538.143636 388.137727 537.33088 390.099894 537.33088 392.145571 
C 537.33088 394.191248 538.143636 396.153415 539.590148 397.599927 
C 541.03666 399.046439 542.998827 399.859195 545.044504 399.859195 
z
" clip-path="url(#pd8b3066642)" style="fill: #a32d2d; stroke: #ffffff; stroke-width: 1.5"/>
    <path d="M 268.762081 435.036067 
C 271.192708 435.036067 273.524109 434.070368 275.242822 432.351656 
C 276.961534 430.632943 277.927233 428.301542 277.927233 425.870915 
C 277.927233 423.440289 276.961534 421.108887 275.242822 419.390175 
C 273.524109 417.671462 271.192708 416.705764 268.762081 416.705764 
C 266.331455 416.705764 264.000053 417.671462 262.281341 419.390175 
C 260.562628 421.108887 259.59693 423.440289 259.59693 425.870915 
C 259.59693 428.301542 260.562628 430.632943 262.281341 432.351656 
C 264.000053 434.070368 266.331455 435.036067 268.762081 435.036067 
z
" clip-path="url(#pd8b3066642)" style="fill: #a32d2d; stroke: #ffffff; stroke-width: 1.5"/>
    <path d="M 288.62096 269.681964 
C 291.597858 269.681964 294.45323 268.49923 296.558214 266.394245 
C 298.663199 264.289261 299.845932 261.433889 299.845932 258.456991 
C 299.845932 255.480094 298.663199 252.624722 296.558214 250.519737 
C 294.45323 248.414753 291.597858 247.232019 288.62096 247.232019 
C 285.644063 247.232019 282.788691 248.414753 280.683706 250.519737 
C 278.578722 252.624722 277.395988 255.480094 277.395988 258.456991 
C 277.395988 261.433889 278.578722 264.289261 280.683706 266.394245 
C 282.788691 268.49923 285.644063 269.681964 288.62096 269.681964 
z
" clip-path="url(#pd8b3066642)" style="fill: #a32d2d; stroke: #ffffff; stroke-width: 1.5"/>
    <path d="M 418.205114 333.538387 
C 422.016111 333.538387 425.671533 332.024262 428.366315 329.32948 
C 431.061097 326.634698 432.575222 322.979276 432.575222 319.168279 
C 432.575222 315.357282 431.061097 311.70186 428.366315 309.007078 
C 425.671533 306.312296 422.016111 304.798171 418.205114 304.798171 
C 414.394117 304.798171 410.738696 306.312296 408.043914 309.007078 
C 405.349132 311.70186 403.835006 315.357282 403.835006 319.168279 
C 403.835006 322.979276 405.349132 326.634698 408.043914 329.32948 
C 410.738696 332.024262 414.394117 333.538387 418.205114 333.538387 
z
" clip-path="url(#pd8b3066642)" style="fill: #a32d2d; stroke: #ffffff; stroke-width: 1.5"/>
    <path d="M 405.698314 282.37477 
C 413.448418 282.37477 420.882141 279.295621 426.362292 273.81547 
C 431.842443 268.335319 434.921592 260.901596 434.921592 253.151492 
C 434.921592 245.401388 431.842443 237.967665 426.362292 232.487514 
C 420.882141 227.007363 413.448418 223.928214 405.698314 223.928214 
C 397.94821 223.928214 390.514487 227.007363 385.034335 232.487514 
C 379.554184 237.967665 376.475035 245.401388 376.475035 253.151492 
C 376.475035 260.901596 379.554184 268.335319 385.034335 273.81547 
C 390.514487 279.295621 397.94821 282.37477 405.698314 282.37477 
z
" clip-path="url(#pd8b3066642)" style="fill: #a32d2d; stroke: #ffffff; stroke-width: 1.5"/>
    <path d="M 204.703847 336.585501 
C 210.1162 336.585501 215.307606 334.43515 219.134717 330.608039 
C 222.961828 326.780928 225.112179 321.589522 225.112179 316.177169 
C 225.112179 310.764816 222.961828 305.573411 219.134717 301.7463 
C 215.307606 297.919188 210.1162 295.768838 204.703847 295.768838 
C 199.291494 295.768838 194.100089 297.919188 190.272977 301.7463 
C 186.445866 305.573411 184.295516 310.764816 184.295516 316.177169 
C 184.295516 321.589522 186.445866 326.780928 190.272977 330.608039 
C 194.100089 334.43515 199.291494 336.585501 204.703847 336.585501 
z
" clip-path="url(#pd8b3066642)" style="fill: #a32d2d; stroke: #ffffff; stroke-width: 1.5"/>
    <path d="M 255.656437 245.63787 
C 258.947521 245.63787 262.104253 244.330309 264.431401 242.003161 
C 266.758549 239.676013 268.06611 236.51928 268.06611 233.228196 
C 268.06611 229.937112 266.758549 226.78038 264.431401 224.453232 
C 262.104253 222.126084 258.947521 220.818523 255.656437 220.818523 
C 252.365353 220.818523 249.20862 222.126084 246.881472 224.453232 
C 244.554325 226.78038 243.246763 229.937112 243.246763 233.228196 
C 243.246763 236.51928 244.554325 239.676013 246.881472 242.003161 
C 249.20862 244.330309 252.365353 245.63787 255.656437 245.63787 
z
" clip-path="url(#pd8b3066642)" style="fill: #a32d2d; stroke: #ffffff; stroke-width: 1.5"/>
    <path d="M 500.982024 589.108957 
C 503.309171 589.108957 505.541318 588.184372 507.18686 586.53883 
C 508.832402 584.893288 509.756988 582.661141 509.756988 580.333993 
C 509.756988 578.006845 508.832402 575.774698 507.18686 574.129156 
C 505.541318 572.483614 503.309171 571.559028 500.982024 571.559028 
C 498.654876 571.559028 496.422729 572.483614 494.777187 574.129156 
C 493.131645 575.774698 492.207059 578.006845 492.207059 580.333993 
C 492.207059 582.661141 493.131645 584.893288 494.777187 586.53883 
C 496.422729 588.184372 498.654876 589.108957 500.982024 589.108957 
z
" clip-path="url(#pd8b3066642)" style="fill: #a32d2d; stroke: #ffffff; stroke-width: 1.5"/>
    <path d="M 489.576633 503.419337 
C 495.852484 503.419337 501.872137 500.925915 506.309834 496.488219 
C 510.747531 492.050522 513.240953 486.030869 513.240953 479.755018 
C 513.240953 473.479167 510.747531 467.459514 506.309834 463.021818 
C 501.872137 458.584121 495.852484 456.090699 489.576633 456.090699 
C 483.300783 456.090699 477.28113 458.584121 472.843433 463.021818 
C 468.405736 467.459514 465.912314 473.479167 465.912314 479.755018 
C 465.912314 486.030869 468.405736 492.050522 472.843433 496.488219 
C 477.28113 500.925915 483.300783 503.419337 489.576633 503.419337 
z
" clip-path="url(#pd8b3066642)" style="fill: #a32d2d; stroke: #ffffff; stroke-width: 1.5"/>
    <path d="M 445.52646 470.437262 
C 451.051348 470.437262 456.350694 468.242201 460.25738 464.335516 
C 464.164066 460.42883 466.359127 455.129484 466.359127 449.604596 
C 466.359127 444.079708 464.164066 438.780362 460.25738 434.873676 
C 456.350694 430.96699 451.051348 428.771929 445.52646 428.771929 
C 440.001572 428.771929 434.702226 430.96699 430.79554 434.873676 
C 426.888855 438.780362 424.693794 444.079708 424.693794 449.604596 
C 424.693794 455.129484 426.888855 460.42883 430.79554 464.335516 
C 434.702226 468.242201 440.001572 470.437262 445.52646 470.437262 
z
" clip-path="url(#pd8b3066642)" style="fill: #a32d2d; stroke: #ffffff; stroke-width: 1.5"/>
    <path d="M 607.350651 475.822257 
C 610.409122 475.822257 613.342738 474.607114 615.505404 472.444448 
C 617.66807 470.281782 618.883213 467.348166 618.883213 464.289695 
C 618.883213 461.231223 617.66807 458.297607 615.505404 456.134941 
C 613.342738 453.972276 610.409122 452.757132 607.350651 452.757132 
C 604.292179 452.757132 601.358563 453.972276 599.195898 456.134941 
C 597.033232 458.297607 595.818088 461.231223 595.818088 464.289695 
C 595.818088 467.348166 597.033232 470.281782 599.195898 472.444448 
C 601.358563 474.607114 604.292179 475.822257 607.350651 475.822257 
z
" clip-path="url(#pd8b3066642)" style="fill: #a32d2d; stroke: #ffffff; stroke-width: 1.5"/>
   </g>
   <g id="text_1">
    <g clip-path="url(#pd8b3066642)">
     <!-- job satisfaction -->
     <g transform="translate(231.556218 363.411762) scale(0.09 -0.09)">
      <defs>
       <path id="DejaVuSans-4d" d="M 603 3500 
L 1178 3500 
L 1178 -63 
Q 1178 -731 923 -1031 
Q 669 -1331 103 -1331 
L -116 -1331 
L -116 -844 
L 38 -844 
Q 366 -844 484 -692 
Q 603 -541 603 -63 
L 603 3500 
z
M 603 4863 
L 1178 4863 
L 1178 4134 
L 603 4134 
L 603 4863 
z
" transform="scale(0.015625)"/>
       <path id="DejaVuSans-52" d="M 1959 3097 
Q 1497 3097 1228 2736 
Q 959 2375 959 1747 
Q 959 1119 1226 758 
Q 1494 397 1959 397 
Q 2419 397 2687 759 
Q 2956 1122 2956 1747 
Q 2956 2369 2687 2733 
Q 2419 3097 1959 3097 
z
M 1959 3584 
Q 2709 3584 3137 3096 
Q 3566 2609 3566 1747 
Q 3566 888 3137 398 
Q 2709 -91 1959 -91 
Q 1206 -91 779 398 
Q 353 888 353 1747 
Q 353 2609 779 3096 
Q 1206 3584 1959 3584 
z
" transform="scale(0.015625)"/>
       <path id="DejaVuSans-45" d="M 3116 1747 
Q 3116 2381 2855 2742 
Q 2594 3103 2138 3103 
Q 1681 3103 1420 2742 
Q 1159 2381 1159 1747 
Q 1159 1113 1420 752 
Q 1681 391 2138 391 
Q 2594 391 2855 752 
Q 3116 1113 3116 1747 
z
M 1159 2969 
Q 1341 3281 1617 3432 
Q 1894 3584 2278 3584 
Q 2916 3584 3314 3078 
Q 3713 2572 3713 1747 
Q 3713 922 3314 415 
Q 2916 -91 2278 -91 
Q 1894 -91 1617 61 
Q 1341 213 1159 525 
L 1159 0 
L 581 0 
L 581 4863 
L 1159 4863 
L 1159 2969 
z
" transform="scale(0.015625)"/>
       <path id="DejaVuSans-3" transform="scale(0.015625)"/>
       <path id="DejaVuSans-56" d="M 2834 3397 
L 2834 2853 
Q 2591 2978 2328 3040 
Q 2066 3103 1784 3103 
Q 1356 3103 1142 2972 
Q 928 2841 928 2578 
Q 928 2378 1081 2264 
Q 1234 2150 1697 2047 
L 1894 2003 
Q 2506 1872 2764 1633 
Q 3022 1394 3022 966 
Q 3022 478 2636 193 
Q 2250 -91 1575 -91 
Q 1294 -91 989 -36 
Q 684 19 347 128 
L 347 722 
Q 666 556 975 473 
Q 1284 391 1588 391 
Q 1994 391 2212 530 
Q 2431 669 2431 922 
Q 2431 1156 2273 1281 
Q 2116 1406 1581 1522 
L 1381 1569 
Q 847 1681 609 1914 
Q 372 2147 372 2553 
Q 372 3047 722 3315 
Q 1072 3584 1716 3584 
Q 2034 3584 2315 3537 
Q 2597 3491 2834 3397 
z
" transform="scale(0.015625)"/>
       <path id="DejaVuSans-44" d="M 2194 1759 
Q 1497 1759 1228 1600 
Q 959 1441 959 1056 
Q 959 750 1161 570 
Q 1363 391 1709 391 
Q 2188 391 2477 730 
Q 2766 1069 2766 1631 
L 2766 1759 
L 2194 1759 
z
M 3341 1997 
L 3341 0 
L 2766 0 
L 2766 531 
Q 2569 213 2275 61 
Q 1981 -91 1556 -91 
Q 1019 -91 701 211 
Q 384 513 384 1019 
Q 384 1609 779 1909 
Q 1175 2209 1959 2209 
L 2766 2209 
L 2766 2266 
Q 2766 2663 2505 2880 
Q 2244 3097 1772 3097 
Q 1472 3097 1187 3025 
Q 903 2953 641 2809 
L 641 3341 
Q 956 3463 1253 3523 
Q 1550 3584 1831 3584 
Q 2591 3584 2966 3190 
Q 3341 2797 3341 1997 
z
" transform="scale(0.015625)"/>
       <path id="DejaVuSans-57" d="M 1172 4494 
L 1172 3500 
L 2356 3500 
L 2356 3053 
L 1172 3053 
L 1172 1153 
Q 1172 725 1289 603 
Q 1406 481 1766 481 
L 2356 481 
L 2356 0 
L 1766 0 
Q 1100 0 847 248 
Q 594 497 594 1153 
L 594 3053 
L 172 3053 
L 172 3500 
L 594 3500 
L 594 4494 
L 1172 4494 
z
" transform="scale(0.015625)"/>
       <path id="DejaVuSans-4c" d="M 603 3500 
L 1178 3500 
L 1178 0 
L 603 0 
L 603 3500 
z
M 603 4863 
L 1178 4863 
L 1178 4134 
L 603 4134 
L 603 4863 
z
" transform="scale(0.015625)"/>
       <path id="DejaVuSans-49" d="M 2375 4863 
L 2375 4384 
L 1825 4384 
Q 1516 4384 1395 4259 
Q 1275 4134 1275 3809 
L 1275 3500 
L 2222 3500 
L 2222 3053 
L 1275 3053 
L 1275 0 
L 697 0 
L 697 3053 
L 147 3053 
L 147 3500 
L 697 3500 
L 697 3744 
Q 697 4328 969 4595 
Q 1241 4863 1831 4863 
L 2375 4863 
z
" transform="scale(0.015625)"/>
       <path id="DejaVuSans-46" d="M 3122 3366 
L 3122 2828 
Q 2878 2963 2633 3030 
Q 2388 3097 2138 3097 
Q 1578 3097 1268 2742 
Q 959 2388 959 1747 
Q 959 1106 1268 751 
Q 1578 397 2138 397 
Q 2388 397 2633 464 
Q 2878 531 3122 666 
L 3122 134 
Q 2881 22 2623 -34 
Q 2366 -91 2075 -91 
Q 1284 -91 818 406 
Q 353 903 353 1747 
Q 353 2603 823 3093 
Q 1294 3584 2113 3584 
Q 2378 3584 2631 3529 
Q 2884 3475 3122 3366 
z
" transform="scale(0.015625)"/>
       <path id="DejaVuSans-51" d="M 3513 2113 
L 3513 0 
L 2938 0 
L 2938 2094 
Q 2938 2591 2744 2837 
Q 2550 3084 2163 3084 
Q 1697 3084 1428 2787 
Q 1159 2491 1159 1978 
L 1159 0 
L 581 0 
L 581 3500 
L 1159 3500 
L 1159 2956 
Q 1366 3272 1645 3428 
Q 1925 3584 2291 3584 
Q 2894 3584 3203 3211 
Q 3513 2838 3513 2113 
z
" transform="scale(0.015625)"/>
      </defs>
      <use xlink:href="#DejaVuSans-4d"/>
      <use xlink:href="#DejaVuSans-52" transform="translate(27.78125 0)"/>
      <use xlink:href="#DejaVuSans-45" transform="translate(88.96875 0)"/>
      <use xlink:href="#DejaVuSans-3" transform="translate(152.453125 0)"/>
      <use xlink:href="#DejaVuSans-56" transform="translate(184.234375 0)"/>
      <use xlink:href="#DejaVuSans-44" transform="translate(236.328125 0)"/>
      <use xlink:href="#DejaVuSans-57" transform="translate(297.609375 0)"/>
      <use xlink:href="#DejaVuSans-4c" transform="translate(336.8125 0)"/>
      <use xlink:href="#DejaVuSans-56" transform="translate(364.59375 0)"/>
      <use xlink:href="#DejaVuSans-49" transform="translate(416.6875 0)"/>
      <use xlink:href="#DejaVuSans-44" transform="translate(451.890625 0)"/>
      <use xlink:href="#DejaVuSans-46" transform="translate(513.171875 0)"/>
      <use xlink:href="#DejaVuSans-57" transform="translate(568.15625 0)"/>
      <use xlink:href="#DejaVuSans-4c" transform="translate(607.359375 0)"/>
      <use xlink:href="#DejaVuSans-52" transform="translate(635.140625 0)"/>
      <use xlink:href="#DejaVuSans-51" transform="translate(696.328125 0)"/>
     </g>
    </g>
   </g>
   <g id="text_2">
    <g clip-path="url(#pd8b3066642)">
     <!-- engagement -->
     <g transform="translate(326.989701 426.218634) scale(0.09 -0.09)">
      <defs>
       <path id="DejaVuSans-48" d="M 3597 1894 
L 3597 1613 
L 953 1613 
Q 991 1019 1311 708 
Q 1631 397 2203 397 
Q 2534 397 2845 478 
Q 3156 559 3463 722 
L 3463 178 
Q 3153 47 2828 -22 
Q 2503 -91 2169 -91 
Q 1331 -91 842 396 
Q 353 884 353 1716 
Q 353 2575 817 3079 
Q 1281 3584 2069 3584 
Q 2775 3584 3186 3129 
Q 3597 2675 3597 1894 
z
M 3022 2063 
Q 3016 2534 2758 2815 
Q 2500 3097 2075 3097 
Q 1594 3097 1305 2825 
Q 1016 2553 972 2059 
L 3022 2063 
z
" transform="scale(0.015625)"/>
       <path id="DejaVuSans-4a" d="M 2906 1791 
Q 2906 2416 2648 2759 
Q 2391 3103 1925 3103 
Q 1463 3103 1205 2759 
Q 947 2416 947 1791 
Q 947 1169 1205 825 
Q 1463 481 1925 481 
Q 2391 481 2648 825 
Q 2906 1169 2906 1791 
z
M 3481 434 
Q 3481 -459 3084 -895 
Q 2688 -1331 1869 -1331 
Q 1566 -1331 1297 -1286 
Q 1028 -1241 775 -1147 
L 775 -588 
Q 1028 -725 1275 -790 
Q 1522 -856 1778 -856 
Q 2344 -856 2625 -561 
Q 2906 -266 2906 331 
L 2906 616 
Q 2728 306 2450 153 
Q 2172 0 1784 0 
Q 1141 0 747 490 
Q 353 981 353 1791 
Q 353 2603 747 3093 
Q 1141 3584 1784 3584 
Q 2172 3584 2450 3431 
Q 2728 3278 2906 2969 
L 2906 3500 
L 3481 3500 
L 3481 434 
z
" transform="scale(0.015625)"/>
       <path id="DejaVuSans-50" d="M 3328 2828 
Q 3544 3216 3844 3400 
Q 4144 3584 4550 3584 
Q 5097 3584 5394 3201 
Q 5691 2819 5691 2113 
L 5691 0 
L 5113 0 
L 5113 2094 
Q 5113 2597 4934 2840 
Q 4756 3084 4391 3084 
Q 3944 3084 3684 2787 
Q 3425 2491 3425 1978 
L 3425 0 
L 2847 0 
L 2847 2094 
Q 2847 2600 2669 2842 
Q 2491 3084 2119 3084 
Q 1678 3084 1418 2786 
Q 1159 2488 1159 1978 
L 1159 0 
L 581 0 
L 581 3500 
L 1159 3500 
L 1159 2956 
Q 1356 3278 1631 3431 
Q 1906 3584 2284 3584 
Q 2666 3584 2933 3390 
Q 3200 3197 3328 2828 
z
" transform="scale(0.015625)"/>
      </defs>
      <use xlink:href="#DejaVuSans-48"/>
      <use xlink:href="#DejaVuSans-51" transform="translate(61.53125 0)"/>
      <use xlink:href="#DejaVuSans-4a" transform="translate(124.90625 0)"/>
      <use xlink:href="#DejaVuSans-44" transform="translate(188.390625 0)"/>
      <use xlink:href="#DejaVuSans-4a" transform="translate(249.671875 0)"/>
      <use xlink:href="#DejaVuSans-48" transform="translate(313.15625 0)"/>
      <use xlink:href="#DejaVuSans-50" transform="translate(374.6875 0)"/>
      <use xlink:href="#DejaVuSans-48" transform="translate(472.09375 0)"/>
      <use xlink:href="#DejaVuSans-51" transform="translate(533.625 0)"/>
      <use xlink:href="#DejaVuSans-57" transform="translate(597 0)"/>
     </g>
    </g>
   </g>
   <g id="text_3">
    <g clip-path="url(#pd8b3066642)">
     <!-- wellbeing -->
     <g transform="translate(52.518986 454.541875) scale(0.09 -0.09)">
      <defs>
       <path id="DejaVuSans-5a" d="M 269 3500 
L 844 3500 
L 1563 769 
L 2278 3500 
L 2956 3500 
L 3675 769 
L 4391 3500 
L 4966 3500 
L 4050 0 
L 3372 0 
L 2619 2869 
L 1863 0 
L 1184 0 
L 269 3500 
z
" transform="scale(0.015625)"/>
       <path id="DejaVuSans-4f" d="M 603 4863 
L 1178 4863 
L 1178 0 
L 603 0 
L 603 4863 
z
" transform="scale(0.015625)"/>
      </defs>
      <use xlink:href="#DejaVuSans-5a"/>
      <use xlink:href="#DejaVuSans-48" transform="translate(81.78125 0)"/>
      <use xlink:href="#DejaVuSans-4f" transform="translate(143.3125 0)"/>
      <use xlink:href="#DejaVuSans-4f" transform="translate(171.09375 0)"/>
      <use xlink:href="#DejaVuSans-45" transform="translate(198.875 0)"/>
      <use xlink:href="#DejaVuSans-48" transform="translate(262.359375 0)"/>
      <use xlink:href="#DejaVuSans-4c" transform="translate(323.890625 0)"/>
      <use xlink:href="#DejaVuSans-51" transform="translate(351.671875 0)"/>
      <use xlink:href="#DejaVuSans-4a" transform="translate(415.046875 0)"/>
     </g>
    </g>
   </g>
   <g id="text_4">
    <g clip-path="url(#pd8b3066642)">
     <!-- burnout -->
     <g transform="translate(168.949868 391.232723) scale(0.09 -0.09)">
      <defs>
       <path id="DejaVuSans-58" d="M 544 1381 
L 544 3500 
L 1119 3500 
L 1119 1403 
Q 1119 906 1312 657 
Q 1506 409 1894 409 
Q 2359 409 2629 706 
Q 2900 1003 2900 1516 
L 2900 3500 
L 3475 3500 
L 3475 0 
L 2900 0 
L 2900 538 
Q 2691 219 2414 64 
Q 2138 -91 1772 -91 
Q 1169 -91 856 284 
Q 544 659 544 1381 
z
M 1991 3584 
L 1991 3584 
z
" transform="scale(0.015625)"/>
       <path id="DejaVuSans-55" d="M 2631 2963 
Q 2534 3019 2420 3045 
Q 2306 3072 2169 3072 
Q 1681 3072 1420 2755 
Q 1159 2438 1159 1844 
L 1159 0 
L 581 0 
L 581 3500 
L 1159 3500 
L 1159 2956 
Q 1341 3275 1631 3429 
Q 1922 3584 2338 3584 
Q 2397 3584 2469 3576 
Q 2541 3569 2628 3553 
L 2631 2963 
z
" transform="scale(0.015625)"/>
      </defs>
      <use xlink:href="#DejaVuSans-45"/>
      <use xlink:href="#DejaVuSans-58" transform="translate(63.484375 0)"/>
      <use xlink:href="#DejaVuSans-55" transform="translate(126.859375 0)"/>
      <use xlink:href="#DejaVuSans-51" transform="translate(166.21875 0)"/>
      <use xlink:href="#DejaVuSans-52" transform="translate(229.59375 0)"/>
      <use xlink:href="#DejaVuSans-58" transform="translate(290.78125 0)"/>
      <use xlink:href="#DejaVuSans-57" transform="translate(354.15625 0)"/>
     </g>
    </g>
   </g>
   <g id="text_5">
    <g clip-path="url(#pd8b3066642)">
     <!-- technostress -->
     <g transform="translate(124.193297 340.840843) scale(0.09 -0.09)">
      <defs>
       <path id="DejaVuSans-4b" d="M 3513 2113 
L 3513 0 
L 2938 0 
L 2938 2094 
Q 2938 2591 2744 2837 
Q 2550 3084 2163 3084 
Q 1697 3084 1428 2787 
Q 1159 2491 1159 1978 
L 1159 0 
L 581 0 
L 581 4863 
L 1159 4863 
L 1159 2956 
Q 1366 3272 1645 3428 
Q 1925 3584 2291 3584 
Q 2894 3584 3203 3211 
Q 3513 2838 3513 2113 
z
" transform="scale(0.015625)"/>
      </defs>
      <use xlink:href="#DejaVuSans-57"/>
      <use xlink:href="#DejaVuSans-48" transform="translate(39.203125 0)"/>
      <use xlink:href="#DejaVuSans-46" transform="translate(100.734375 0)"/>
      <use xlink:href="#DejaVuSans-4b" transform="translate(155.71875 0)"/>
      <use xlink:href="#DejaVuSans-51" transform="translate(219.09375 0)"/>
      <use xlink:href="#DejaVuSans-52" transform="translate(282.46875 0)"/>
      <use xlink:href="#DejaVuSans-56" transform="translate(343.65625 0)"/>
      <use xlink:href="#DejaVuSans-57" transform="translate(395.75 0)"/>
      <use xlink:href="#DejaVuSans-55" transform="translate(434.953125 0)"/>
      <use xlink:href="#DejaVuSans-48" transform="translate(473.859375 0)"/>
      <use xlink:href="#DejaVuSans-56" transform="translate(535.390625 0)"/>
      <use xlink:href="#DejaVuSans-56" transform="translate(587.484375 0)"/>
     </g>
    </g>
   </g>
   <g id="text_6">
    <g clip-path="url(#pd8b3066642)">
     <!-- stress -->
     <g transform="translate(144.155895 261.246962) scale(0.09 -0.09)">
      <use xlink:href="#DejaVuSans-56"/>
      <use xlink:href="#DejaVuSans-57" transform="translate(52.09375 0)"/>
      <use xlink:href="#DejaVuSans-55" transform="translate(91.296875 0)"/>
      <use xlink:href="#DejaVuSans-48" transform="translate(130.203125 0)"/>
      <use xlink:href="#DejaVuSans-56" transform="translate(191.734375 0)"/>
      <use xlink:href="#DejaVuSans-56" transform="translate(243.828125 0)"/>
     </g>
    </g>
   </g>
   <g id="text_7">
    <g clip-path="url(#pd8b3066642)">
     <!-- work life -->
     <g transform="translate(306.330902 365.324001) scale(0.09 -0.09)">
      <defs>
       <path id="DejaVuSans-4e" d="M 581 4863 
L 1159 4863 
L 1159 1991 
L 2875 3500 
L 3609 3500 
L 1753 1863 
L 3688 0 
L 2938 0 
L 1159 1709 
L 1159 0 
L 581 0 
L 581 4863 
z
" transform="scale(0.015625)"/>
      </defs>
      <use xlink:href="#DejaVuSans-5a"/>
      <use xlink:href="#DejaVuSans-52" transform="translate(81.78125 0)"/>
      <use xlink:href="#DejaVuSans-55" transform="translate(142.96875 0)"/>
      <use xlink:href="#DejaVuSans-4e" transform="translate(184.078125 0)"/>
      <use xlink:href="#DejaVuSans-3" transform="translate(241.984375 0)"/>
      <use xlink:href="#DejaVuSans-4f" transform="translate(273.765625 0)"/>
      <use xlink:href="#DejaVuSans-4c" transform="translate(301.546875 0)"/>
      <use xlink:href="#DejaVuSans-49" transform="translate(329.328125 0)"/>
      <use xlink:href="#DejaVuSans-48" transform="translate(364.53125 0)"/>
     </g>
    </g>
   </g>
   <g id="text_8">
    <g clip-path="url(#pd8b3066642)">
     <!-- turnover intention -->
     <g transform="translate(256.746941 316.907516) scale(0.09 -0.09)">
      <defs>
       <path id="DejaVuSans-59" d="M 191 3500 
L 800 3500 
L 1894 563 
L 2988 3500 
L 3597 3500 
L 2284 0 
L 1503 0 
L 191 3500 
z
" transform="scale(0.015625)"/>
      </defs>
      <use xlink:href="#DejaVuSans-57"/>
      <use xlink:href="#DejaVuSans-58" transform="translate(39.203125 0)"/>
      <use xlink:href="#DejaVuSans-55" transform="translate(102.578125 0)"/>
      <use xlink:href="#DejaVuSans-51" transform="translate(141.9375 0)"/>
      <use xlink:href="#DejaVuSans-52" transform="translate(205.3125 0)"/>
      <use xlink:href="#DejaVuSans-59" transform="translate(266.5 0)"/>
      <use xlink:href="#DejaVuSans-48" transform="translate(325.6875 0)"/>
      <use xlink:href="#DejaVuSans-55" transform="translate(387.21875 0)"/>
      <use xlink:href="#DejaVuSans-3" transform="translate(428.328125 0)"/>
      <use xlink:href="#DejaVuSans-4c" transform="translate(460.109375 0)"/>
      <use xlink:href="#DejaVuSans-51" transform="translate(487.890625 0)"/>
      <use xlink:href="#DejaVuSans-57" transform="translate(551.265625 0)"/>
      <use xlink:href="#DejaVuSans-48" transform="translate(590.46875 0)"/>
      <use xlink:href="#DejaVuSans-51" transform="translate(652 0)"/>
      <use xlink:href="#DejaVuSans-57" transform="translate(715.375 0)"/>
      <use xlink:href="#DejaVuSans-4c" transform="translate(754.578125 0)"/>
      <use xlink:href="#DejaVuSans-52" transform="translate(782.359375 0)"/>
      <use xlink:href="#DejaVuSans-51" transform="translate(843.546875 0)"/>
     </g>
    </g>
   </g>
   <g id="text_9">
    <g clip-path="url(#pd8b3066642)">
     <!-- isolation -->
     <g transform="translate(450.364804 224.153661) scale(0.09 -0.09)">
      <use xlink:href="#DejaVuSans-4c"/>
      <use xlink:href="#DejaVuSans-56" transform="translate(27.78125 0)"/>
      <use xlink:href="#DejaVuSans-52" transform="translate(79.875 0)"/>
      <use xlink:href="#DejaVuSans-4f" transform="translate(141.0625 0)"/>
      <use xlink:href="#DejaVuSans-44" transform="translate(168.84375 0)"/>
      <use xlink:href="#DejaVuSans-57" transform="translate(230.125 0)"/>
      <use xlink:href="#DejaVuSans-4c" transform="translate(269.328125 0)"/>
      <use xlink:href="#DejaVuSans-52" transform="translate(297.109375 0)"/>
      <use xlink:href="#DejaVuSans-51" transform="translate(358.296875 0)"/>
     </g>
    </g>
   </g>
   <g id="text_10">
    <g clip-path="url(#pd8b3066642)">
     <!-- autonomy -->
     <g transform="translate(687.967967 346.400445) scale(0.09 -0.09)">
      <defs>
       <path id="DejaVuSans-5c" d="M 2059 -325 
Q 1816 -950 1584 -1140 
Q 1353 -1331 966 -1331 
L 506 -1331 
L 506 -850 
L 844 -850 
Q 1081 -850 1212 -737 
Q 1344 -625 1503 -206 
L 1606 56 
L 191 3500 
L 800 3500 
L 1894 763 
L 2988 3500 
L 3597 3500 
L 2059 -325 
z
" transform="scale(0.015625)"/>
      </defs>
      <use xlink:href="#DejaVuSans-44"/>
      <use xlink:href="#DejaVuSans-58" transform="translate(61.28125 0)"/>
      <use xlink:href="#DejaVuSans-57" transform="translate(124.65625 0)"/>
      <use xlink:href="#DejaVuSans-52" transform="translate(163.859375 0)"/>
      <use xlink:href="#DejaVuSans-51" transform="translate(225.046875 0)"/>
      <use xlink:href="#DejaVuSans-52" transform="translate(288.421875 0)"/>
      <use xlink:href="#DejaVuSans-50" transform="translate(349.609375 0)"/>
      <use xlink:href="#DejaVuSans-5c" transform="translate(447.015625 0)"/>
     </g>
    </g>
   </g>
   <g id="text_11">
    <g clip-path="url(#pd8b3066642)">
     <!-- flexibility -->
     <g transform="translate(545.741527 338.192396) scale(0.09 -0.09)">
      <defs>
       <path id="DejaVuSans-13b0" d="M 1831 4863 
L 3431 4863 
L 3431 0 
L 2853 0 
L 2853 4384 
L 1825 4384 
Q 1516 4384 1395 4259 
Q 1275 4134 1275 3809 
L 1275 3500 
L 2222 3500 
L 2222 3053 
L 1275 3053 
L 1275 0 
L 697 0 
L 697 3053 
L 147 3053 
L 147 3500 
L 697 3500 
L 697 3744 
Q 697 4328 969 4595 
Q 1241 4863 1831 4863 
z
" transform="scale(0.015625)"/>
       <path id="DejaVuSans-5b" d="M 3513 3500 
L 2247 1797 
L 3578 0 
L 2900 0 
L 1881 1375 
L 863 0 
L 184 0 
L 1544 1831 
L 300 3500 
L 978 3500 
L 1906 2253 
L 2834 3500 
L 3513 3500 
z
" transform="scale(0.015625)"/>
      </defs>
      <use xlink:href="#DejaVuSans-13b0"/>
      <use xlink:href="#DejaVuSans-48" transform="translate(62.984375 0)"/>
      <use xlink:href="#DejaVuSans-5b" transform="translate(122.765625 0)"/>
      <use xlink:href="#DejaVuSans-4c" transform="translate(181.953125 0)"/>
      <use xlink:href="#DejaVuSans-45" transform="translate(209.734375 0)"/>
      <use xlink:href="#DejaVuSans-4c" transform="translate(273.21875 0)"/>
      <use xlink:href="#DejaVuSans-4f" transform="translate(301 0)"/>
      <use xlink:href="#DejaVuSans-4c" transform="translate(328.78125 0)"/>
      <use xlink:href="#DejaVuSans-57" transform="translate(356.5625 0)"/>
      <use xlink:href="#DejaVuSans-5c" transform="translate(395.765625 0)"/>
     </g>
    </g>
   </g>
   <g id="text_12">
    <g clip-path="url(#pd8b3066642)">
     <!-- belonging -->
     <g transform="translate(325.025295 77.680499) scale(0.09 -0.09)">
      <use xlink:href="#DejaVuSans-45"/>
      <use xlink:href="#DejaVuSans-48" transform="translate(63.484375 0)"/>
      <use xlink:href="#DejaVuSans-4f" transform="translate(125.015625 0)"/>
      <use xlink:href="#DejaVuSans-52" transform="translate(152.796875 0)"/>
      <use xlink:href="#DejaVuSans-51" transform="translate(213.984375 0)"/>
      <use xlink:href="#DejaVuSans-4a" transform="translate(277.359375 0)"/>
      <use xlink:href="#DejaVuSans-4c" transform="translate(340.84375 0)"/>
      <use xlink:href="#DejaVuSans-51" transform="translate(368.625 0)"/>
      <use xlink:href="#DejaVuSans-4a" transform="translate(432 0)"/>
     </g>
    </g>
   </g>
   <g id="text_13">
    <g clip-path="url(#pd8b3066642)">
     <!-- firm performance -->
     <g transform="translate(369.899921 372.716919) scale(0.09 -0.09)">
      <defs>
       <path id="DejaVuSans-13af" d="M 3431 3500 
L 3431 0 
L 2853 0 
L 2853 3053 
L 1275 3053 
L 1275 0 
L 697 0 
L 697 3053 
L 147 3053 
L 147 3500 
L 697 3500 
L 697 3744 
Q 697 4316 967 4589 
Q 1238 4863 1797 4863 
L 2375 4863 
L 2375 4384 
L 1825 4384 
Q 1516 4384 1395 4259 
Q 1275 4134 1275 3809 
L 1275 3500 
L 3431 3500 
z
M 2853 4856 
L 3431 4856 
L 3431 4128 
L 2853 4128 
L 2853 4856 
z
" transform="scale(0.015625)"/>
       <path id="DejaVuSans-53" d="M 1159 525 
L 1159 -1331 
L 581 -1331 
L 581 3500 
L 1159 3500 
L 1159 2969 
Q 1341 3281 1617 3432 
Q 1894 3584 2278 3584 
Q 2916 3584 3314 3078 
Q 3713 2572 3713 1747 
Q 3713 922 3314 415 
Q 2916 -91 2278 -91 
Q 1894 -91 1617 61 
Q 1341 213 1159 525 
z
M 3116 1747 
Q 3116 2381 2855 2742 
Q 2594 3103 2138 3103 
Q 1681 3103 1420 2742 
Q 1159 2381 1159 1747 
Q 1159 1113 1420 752 
Q 1681 391 2138 391 
Q 2594 391 2855 752 
Q 3116 1113 3116 1747 
z
" transform="scale(0.015625)"/>
      </defs>
      <use xlink:href="#DejaVuSans-13af"/>
      <use xlink:href="#DejaVuSans-55" transform="translate(62.984375 0)"/>
      <use xlink:href="#DejaVuSans-50" transform="translate(102.34375 0)"/>
      <use xlink:href="#DejaVuSans-3" transform="translate(199.75 0)"/>
      <use xlink:href="#DejaVuSans-53" transform="translate(231.53125 0)"/>
      <use xlink:href="#DejaVuSans-48" transform="translate(295.015625 0)"/>
      <use xlink:href="#DejaVuSans-55" transform="translate(356.546875 0)"/>
      <use xlink:href="#DejaVuSans-49" transform="translate(397.65625 0)"/>
      <use xlink:href="#DejaVuSans-52" transform="translate(432.859375 0)"/>
      <use xlink:href="#DejaVuSans-55" transform="translate(494.046875 0)"/>
      <use xlink:href="#DejaVuSans-50" transform="translate(533.40625 0)"/>
      <use xlink:href="#DejaVuSans-44" transform="translate(630.8125 0)"/>
      <use xlink:href="#DejaVuSans-51" transform="translate(692.09375 0)"/>
      <use xlink:href="#DejaVuSans-46" transform="translate(755.46875 0)"/>
      <use xlink:href="#DejaVuSans-48" transform="translate(810.453125 0)"/>
     </g>
    </g>
   </g>
   <g id="text_14">
    <g clip-path="url(#pd8b3066642)">
     <!-- financial -->
     <g transform="translate(261.506943 140.372813) scale(0.09 -0.09)">
      <use xlink:href="#DejaVuSans-13af"/>
      <use xlink:href="#DejaVuSans-51" transform="translate(62.984375 0)"/>
      <use xlink:href="#DejaVuSans-44" transform="translate(126.359375 0)"/>
      <use xlink:href="#DejaVuSans-51" transform="translate(187.640625 0)"/>
      <use xlink:href="#DejaVuSans-46" transform="translate(251.015625 0)"/>
      <use xlink:href="#DejaVuSans-4c" transform="translate(306 0)"/>
      <use xlink:href="#DejaVuSans-44" transform="translate(333.78125 0)"/>
      <use xlink:href="#DejaVuSans-4f" transform="translate(395.0625 0)"/>
     </g>
    </g>
   </g>
   <g id="text_15">
    <g clip-path="url(#pd8b3066642)">
     <!-- cost -->
     <g transform="translate(535.70841 394.483462) scale(0.09 -0.09)">
      <use xlink:href="#DejaVuSans-46"/>
      <use xlink:href="#DejaVuSans-52" transform="translate(54.984375 0)"/>
      <use xlink:href="#DejaVuSans-56" transform="translate(116.171875 0)"/>
      <use xlink:href="#DejaVuSans-57" transform="translate(168.265625 0)"/>
     </g>
    </g>
   </g>
   <g id="text_16">
    <g clip-path="url(#pd8b3066642)">
     <!-- retention rate -->
     <g transform="translate(237.667081 428.209157) scale(0.09 -0.09)">
      <use xlink:href="#DejaVuSans-55"/>
      <use xlink:href="#DejaVuSans-48" transform="translate(38.90625 0)"/>
      <use xlink:href="#DejaVuSans-57" transform="translate(100.4375 0)"/>
      <use xlink:href="#DejaVuSans-48" transform="translate(139.640625 0)"/>
      <use xlink:href="#DejaVuSans-51" transform="translate(201.171875 0)"/>
      <use xlink:href="#DejaVuSans-57" transform="translate(264.546875 0)"/>
      <use xlink:href="#DejaVuSans-4c" transform="translate(303.75 0)"/>
      <use xlink:href="#DejaVuSans-52" transform="translate(331.53125 0)"/>
      <use xlink:href="#DejaVuSans-51" transform="translate(392.71875 0)"/>
      <use xlink:href="#DejaVuSans-3" transform="translate(456.09375 0)"/>
      <use xlink:href="#DejaVuSans-55" transform="translate(487.875 0)"/>
      <use xlink:href="#DejaVuSans-44" transform="translate(528.984375 0)"/>
      <use xlink:href="#DejaVuSans-57" transform="translate(590.265625 0)"/>
      <use xlink:href="#DejaVuSans-48" transform="translate(629.46875 0)"/>
     </g>
    </g>
   </g>
   <g id="text_17">
    <g clip-path="url(#pd8b3066642)">
     <!-- absenteeism -->
     <g transform="translate(259.761898 260.795234) scale(0.09 -0.09)">
      <use xlink:href="#DejaVuSans-44"/>
      <use xlink:href="#DejaVuSans-45" transform="translate(61.28125 0)"/>
      <use xlink:href="#DejaVuSans-56" transform="translate(124.765625 0)"/>
      <use xlink:href="#DejaVuSans-48" transform="translate(176.859375 0)"/>
      <use xlink:href="#DejaVuSans-51" transform="translate(238.390625 0)"/>
      <use xlink:href="#DejaVuSans-57" transform="translate(301.765625 0)"/>
      <use xlink:href="#DejaVuSans-48" transform="translate(340.96875 0)"/>
      <use xlink:href="#DejaVuSans-48" transform="translate(402.5 0)"/>
      <use xlink:href="#DejaVuSans-4c" transform="translate(464.03125 0)"/>
      <use xlink:href="#DejaVuSans-56" transform="translate(491.8125 0)"/>
      <use xlink:href="#DejaVuSans-50" transform="translate(543.90625 0)"/>
     </g>
    </g>
   </g>
   <g id="text_18">
    <g clip-path="url(#pd8b3066642)">
     <!-- culture -->
     <g transform="translate(402.493083 321.506521) scale(0.09 -0.09)">
      <use xlink:href="#DejaVuSans-46"/>
      <use xlink:href="#DejaVuSans-58" transform="translate(54.984375 0)"/>
      <use xlink:href="#DejaVuSans-4f" transform="translate(118.359375 0)"/>
      <use xlink:href="#DejaVuSans-57" transform="translate(146.140625 0)"/>
      <use xlink:href="#DejaVuSans-58" transform="translate(185.34375 0)"/>
      <use xlink:href="#DejaVuSans-55" transform="translate(248.71875 0)"/>
      <use xlink:href="#DejaVuSans-48" transform="translate(287.625 0)"/>
     </g>
    </g>
   </g>
   <g id="text_19">
    <g clip-path="url(#pd8b3066642)">
     <!-- productivity -->
     <g transform="translate(378.798861 255.489734) scale(0.09 -0.09)">
      <defs>
       <path id="DejaVuSans-47" d="M 2906 2969 
L 2906 4863 
L 3481 4863 
L 3481 0 
L 2906 0 
L 2906 525 
Q 2725 213 2448 61 
Q 2172 -91 1784 -91 
Q 1150 -91 751 415 
Q 353 922 353 1747 
Q 353 2572 751 3078 
Q 1150 3584 1784 3584 
Q 2172 3584 2448 3432 
Q 2725 3281 2906 2969 
z
M 947 1747 
Q 947 1113 1208 752 
Q 1469 391 1925 391 
Q 2381 391 2643 752 
Q 2906 1113 2906 1747 
Q 2906 2381 2643 2742 
Q 2381 3103 1925 3103 
Q 1469 3103 1208 2742 
Q 947 2381 947 1747 
z
" transform="scale(0.015625)"/>
      </defs>
      <use xlink:href="#DejaVuSans-53"/>
      <use xlink:href="#DejaVuSans-55" transform="translate(63.484375 0)"/>
      <use xlink:href="#DejaVuSans-52" transform="translate(102.390625 0)"/>
      <use xlink:href="#DejaVuSans-47" transform="translate(163.578125 0)"/>
      <use xlink:href="#DejaVuSans-58" transform="translate(227.0625 0)"/>
      <use xlink:href="#DejaVuSans-46" transform="translate(290.4375 0)"/>
      <use xlink:href="#DejaVuSans-57" transform="translate(345.421875 0)"/>
      <use xlink:href="#DejaVuSans-4c" transform="translate(384.625 0)"/>
      <use xlink:href="#DejaVuSans-59" transform="translate(412.40625 0)"/>
      <use xlink:href="#DejaVuSans-4c" transform="translate(471.59375 0)"/>
      <use xlink:href="#DejaVuSans-57" transform="translate(499.375 0)"/>
      <use xlink:href="#DejaVuSans-5c" transform="translate(538.578125 0)"/>
     </g>
    </g>
   </g>
   <g id="text_20">
    <g clip-path="url(#pd8b3066642)">
     <!-- job performance -->
     <g transform="translate(167.59291 318.515411) scale(0.09 -0.09)">
      <use xlink:href="#DejaVuSans-4d"/>
      <use xlink:href="#DejaVuSans-52" transform="translate(27.78125 0)"/>
      <use xlink:href="#DejaVuSans-45" transform="translate(88.96875 0)"/>
      <use xlink:href="#DejaVuSans-3" transform="translate(152.453125 0)"/>
      <use xlink:href="#DejaVuSans-53" transform="translate(184.234375 0)"/>
      <use xlink:href="#DejaVuSans-48" transform="translate(247.71875 0)"/>
      <use xlink:href="#DejaVuSans-55" transform="translate(309.25 0)"/>
      <use xlink:href="#DejaVuSans-49" transform="translate(350.359375 0)"/>
      <use xlink:href="#DejaVuSans-52" transform="translate(385.5625 0)"/>
      <use xlink:href="#DejaVuSans-55" transform="translate(446.75 0)"/>
      <use xlink:href="#DejaVuSans-50" transform="translate(486.109375 0)"/>
      <use xlink:href="#DejaVuSans-44" transform="translate(583.515625 0)"/>
      <use xlink:href="#DejaVuSans-51" transform="translate(644.796875 0)"/>
      <use xlink:href="#DejaVuSans-46" transform="translate(708.171875 0)"/>
      <use xlink:href="#DejaVuSans-48" transform="translate(763.15625 0)"/>
     </g>
    </g>
   </g>
   <g id="text_21">
    <g clip-path="url(#pd8b3066642)">
     <!-- commitment -->
     <g transform="translate(226.87964 235.566439) scale(0.09 -0.09)">
      <use xlink:href="#DejaVuSans-46"/>
      <use xlink:href="#DejaVuSans-52" transform="translate(54.984375 0)"/>
      <use xlink:href="#DejaVuSans-50" transform="translate(116.171875 0)"/>
      <use xlink:href="#DejaVuSans-50" transform="translate(213.578125 0)"/>
      <use xlink:href="#DejaVuSans-4c" transform="translate(310.984375 0)"/>
      <use xlink:href="#DejaVuSans-57" transform="translate(338.765625 0)"/>
      <use xlink:href="#DejaVuSans-50" transform="translate(377.96875 0)"/>
      <use xlink:href="#DejaVuSans-48" transform="translate(475.375 0)"/>
      <use xlink:href="#DejaVuSans-51" transform="translate(536.90625 0)"/>
      <use xlink:href="#DejaVuSans-57" transform="translate(600.28125 0)"/>
     </g>
    </g>
   </g>
   <g id="text_22">
    <g clip-path="url(#pd8b3066642)">
     <!-- team effectiveness -->
     <g transform="translate(458.009836 582.672235) scale(0.09 -0.09)">
      <defs>
       <path id="DejaVuSans-13ae" d="M 4531 4863 
L 4531 4384 
L 3981 4384 
Q 3672 4384 3551 4259 
Q 3431 4134 3431 3809 
L 3431 3500 
L 4378 3500 
L 4378 3053 
L 3431 3053 
L 3431 0 
L 2853 0 
L 2853 3053 
L 1275 3053 
L 1275 0 
L 697 0 
L 697 3053 
L 147 3053 
L 147 3500 
L 697 3500 
L 697 3744 
Q 697 4328 969 4595 
Q 1241 4863 1831 4863 
L 2375 4863 
L 2375 4384 
L 1825 4384 
Q 1516 4384 1394 4259 
Q 1275 4134 1275 3809 
L 1275 3500 
L 2853 3500 
L 2853 3744 
Q 2853 4328 3125 4595 
Q 3397 4863 3988 4863 
L 4531 4863 
z
" transform="scale(0.015625)"/>
      </defs>
      <use xlink:href="#DejaVuSans-57"/>
      <use xlink:href="#DejaVuSans-48" transform="translate(39.203125 0)"/>
      <use xlink:href="#DejaVuSans-44" transform="translate(100.734375 0)"/>
      <use xlink:href="#DejaVuSans-50" transform="translate(162.015625 0)"/>
      <use xlink:href="#DejaVuSans-3" transform="translate(259.421875 0)"/>
      <use xlink:href="#DejaVuSans-48" transform="translate(291.203125 0)"/>
      <use xlink:href="#DejaVuSans-13ae" transform="translate(352.734375 0)"/>
      <use xlink:href="#DejaVuSans-48" transform="translate(421.625 0)"/>
      <use xlink:href="#DejaVuSans-46" transform="translate(483.15625 0)"/>
      <use xlink:href="#DejaVuSans-57" transform="translate(538.140625 0)"/>
      <use xlink:href="#DejaVuSans-4c" transform="translate(577.34375 0)"/>
      <use xlink:href="#DejaVuSans-59" transform="translate(605.125 0)"/>
      <use xlink:href="#DejaVuSans-48" transform="translate(664.3125 0)"/>
      <use xlink:href="#DejaVuSans-51" transform="translate(725.84375 0)"/>
      <use xlink:href="#DejaVuSans-48" transform="translate(789.21875 0)"/>
      <use xlink:href="#DejaVuSans-56" transform="translate(850.75 0)"/>
      <use xlink:href="#DejaVuSans-56" transform="translate(902.84375 0)"/>
     </g>
    </g>
   </g>
   <g id="text_23">
    <g clip-path="url(#pd8b3066642)">
     <!-- collaboration -->
     <g transform="translate(460.253508 482.09326) scale(0.09 -0.09)">
      <use xlink:href="#DejaVuSans-46"/>
      <use xlink:href="#DejaVuSans-52" transform="translate(54.984375 0)"/>
      <use xlink:href="#DejaVuSans-4f" transform="translate(116.171875 0)"/>
      <use xlink:href="#DejaVuSans-4f" transform="translate(143.953125 0)"/>
      <use xlink:href="#DejaVuSans-44" transform="translate(171.734375 0)"/>
      <use xlink:href="#DejaVuSans-45" transform="translate(233.015625 0)"/>
      <use xlink:href="#DejaVuSans-52" transform="translate(296.5 0)"/>
      <use xlink:href="#DejaVuSans-55" transform="translate(357.6875 0)"/>
      <use xlink:href="#DejaVuSans-44" transform="translate(398.796875 0)"/>
      <use xlink:href="#DejaVuSans-57" transform="translate(460.078125 0)"/>
      <use xlink:href="#DejaVuSans-4c" transform="translate(499.28125 0)"/>
      <use xlink:href="#DejaVuSans-52" transform="translate(527.0625 0)"/>
      <use xlink:href="#DejaVuSans-51" transform="translate(588.25 0)"/>
     </g>
    </g>
   </g>
   <g id="text_24">
    <g clip-path="url(#pd8b3066642)">
     <!-- innovation -->
     <g transform="translate(421.778413 451.942838) scale(0.09 -0.09)">
      <use xlink:href="#DejaVuSans-4c"/>
      <use xlink:href="#DejaVuSans-51" transform="translate(27.78125 0)"/>
      <use xlink:href="#DejaVuSans-51" transform="translate(91.15625 0)"/>
      <use xlink:href="#DejaVuSans-52" transform="translate(154.53125 0)"/>
      <use xlink:href="#DejaVuSans-59" transform="translate(215.71875 0)"/>
      <use xlink:href="#DejaVuSans-44" transform="translate(274.90625 0)"/>
      <use xlink:href="#DejaVuSans-57" transform="translate(336.1875 0)"/>
      <use xlink:href="#DejaVuSans-4c" transform="translate(375.390625 0)"/>
      <use xlink:href="#DejaVuSans-52" transform="translate(403.171875 0)"/>
      <use xlink:href="#DejaVuSans-51" transform="translate(464.359375 0)"/>
     </g>
    </g>
   </g>
   <g id="text_25">
    <g clip-path="url(#pd8b3066642)">
     <!-- leadership -->
     <g transform="translate(583.79526 466.627937) scale(0.09 -0.09)">
      <use xlink:href="#DejaVuSans-4f"/>
      <use xlink:href="#DejaVuSans-48" transform="translate(27.78125 0)"/>
      <use xlink:href="#DejaVuSans-44" transform="translate(89.3125 0)"/>
      <use xlink:href="#DejaVuSans-47" transform="translate(150.59375 0)"/>
      <use xlink:href="#DejaVuSans-48" transform="translate(214.078125 0)"/>
      <use xlink:href="#DejaVuSans-55" transform="translate(275.609375 0)"/>
      <use xlink:href="#DejaVuSans-56" transform="translate(316.71875 0)"/>
      <use xlink:href="#DejaVuSans-4b" transform="translate(368.8125 0)"/>
      <use xlink:href="#DejaVuSans-4c" transform="translate(432.1875 0)"/>
      <use xlink:href="#DejaVuSans-53" transform="translate(459.96875 0)"/>
     </g>
    </g>
   </g>
   <g id="text_26">
    <!-- Employee (blue) + Org (red) outcome co-occurrence  (25 nodes, 88 edges) -->
    <g transform="translate(166.585312 16.318125) scale(0.12 -0.12)">
     <defs>
      <path id="DejaVuSans-28" d="M 628 4666 
L 3578 4666 
L 3578 4134 
L 1259 4134 
L 1259 2753 
L 3481 2753 
L 3481 2222 
L 1259 2222 
L 1259 531 
L 3634 531 
L 3634 0 
L 628 0 
L 628 4666 
z
" transform="scale(0.015625)"/>
      <path id="DejaVuSans-b" d="M 1984 4856 
Q 1566 4138 1362 3434 
Q 1159 2731 1159 2009 
Q 1159 1288 1364 580 
Q 1569 -128 1984 -844 
L 1484 -844 
Q 1016 -109 783 600 
Q 550 1309 550 2009 
Q 550 2706 781 3412 
Q 1013 4119 1484 4856 
L 1984 4856 
z
" transform="scale(0.015625)"/>
      <path id="DejaVuSans-c" d="M 513 4856 
L 1013 4856 
Q 1481 4119 1714 3412 
Q 1947 2706 1947 2009 
Q 1947 1309 1714 600 
Q 1481 -109 1013 -844 
L 513 -844 
Q 928 -128 1133 580 
Q 1338 1288 1338 2009 
Q 1338 2731 1133 3434 
Q 928 4138 513 4856 
z
" transform="scale(0.015625)"/>
      <path id="DejaVuSans-e" d="M 2944 4013 
L 2944 2272 
L 4684 2272 
L 4684 1741 
L 2944 1741 
L 2944 0 
L 2419 0 
L 2419 1741 
L 678 1741 
L 678 2272 
L 2419 2272 
L 2419 4013 
L 2944 4013 
z
" transform="scale(0.015625)"/>
      <path id="DejaVuSans-32" d="M 2522 4238 
Q 1834 4238 1429 3725 
Q 1025 3213 1025 2328 
Q 1025 1447 1429 934 
Q 1834 422 2522 422 
Q 3209 422 3611 934 
Q 4013 1447 4013 2328 
Q 4013 3213 3611 3725 
Q 3209 4238 2522 4238 
z
M 2522 4750 
Q 3503 4750 4090 4092 
Q 4678 3434 4678 2328 
Q 4678 1225 4090 567 
Q 3503 -91 2522 -91 
Q 1538 -91 948 565 
Q 359 1222 359 2328 
Q 359 3434 948 4092 
Q 1538 4750 2522 4750 
z
" transform="scale(0.015625)"/>
      <path id="DejaVuSans-10" d="M 313 2009 
L 1997 2009 
L 1997 1497 
L 313 1497 
L 313 2009 
z
" transform="scale(0.015625)"/>
      <path id="DejaVuSans-15" d="M 1228 531 
L 3431 531 
L 3431 0 
L 469 0 
L 469 531 
Q 828 903 1448 1529 
Q 2069 2156 2228 2338 
Q 2531 2678 2651 2914 
Q 2772 3150 2772 3378 
Q 2772 3750 2511 3984 
Q 2250 4219 1831 4219 
Q 1534 4219 1204 4116 
Q 875 4013 500 3803 
L 500 4441 
Q 881 4594 1212 4672 
Q 1544 4750 1819 4750 
Q 2544 4750 2975 4387 
Q 3406 4025 3406 3419 
Q 3406 3131 3298 2873 
Q 3191 2616 2906 2266 
Q 2828 2175 2409 1742 
Q 1991 1309 1228 531 
z
" transform="scale(0.015625)"/>
      <path id="DejaVuSans-18" d="M 691 4666 
L 3169 4666 
L 3169 4134 
L 1269 4134 
L 1269 2991 
Q 1406 3038 1543 3061 
Q 1681 3084 1819 3084 
Q 2600 3084 3056 2656 
Q 3513 2228 3513 1497 
Q 3513 744 3044 326 
Q 2575 -91 1722 -91 
Q 1428 -91 1123 -41 
Q 819 9 494 109 
L 494 744 
Q 775 591 1075 516 
Q 1375 441 1709 441 
Q 2250 441 2565 725 
Q 2881 1009 2881 1497 
Q 2881 1984 2565 2268 
Q 2250 2553 1709 2553 
Q 1456 2553 1204 2497 
Q 953 2441 691 2322 
L 691 4666 
z
" transform="scale(0.015625)"/>
      <path id="DejaVuSans-f" d="M 750 794 
L 1409 794 
L 1409 256 
L 897 -744 
L 494 -744 
L 750 256 
L 750 794 
z
" transform="scale(0.015625)"/>
      <path id="DejaVuSans-1b" d="M 2034 2216 
Q 1584 2216 1326 1975 
Q 1069 1734 1069 1313 
Q 1069 891 1326 650 
Q 1584 409 2034 409 
Q 2484 409 2743 651 
Q 3003 894 3003 1313 
Q 3003 1734 2745 1975 
Q 2488 2216 2034 2216 
z
M 1403 2484 
Q 997 2584 770 2862 
Q 544 3141 544 3541 
Q 544 4100 942 4425 
Q 1341 4750 2034 4750 
Q 2731 4750 3128 4425 
Q 3525 4100 3525 3541 
Q 3525 3141 3298 2862 
Q 3072 2584 2669 2484 
Q 3125 2378 3379 2068 
Q 3634 1759 3634 1313 
Q 3634 634 3220 271 
Q 2806 -91 2034 -91 
Q 1263 -91 848 271 
Q 434 634 434 1313 
Q 434 1759 690 2068 
Q 947 2378 1403 2484 
z
M 1172 3481 
Q 1172 3119 1398 2916 
Q 1625 2713 2034 2713 
Q 2441 2713 2670 2916 
Q 2900 3119 2900 3481 
Q 2900 3844 2670 4047 
Q 2441 4250 2034 4250 
Q 1625 4250 1398 4047 
Q 1172 3844 1172 3481 
z
" transform="scale(0.015625)"/>
     </defs>
     <use xlink:href="#DejaVuSans-28"/>
     <use xlink:href="#DejaVuSans-50" transform="translate(63.1875 0)"/>
     <use xlink:href="#DejaVuSans-53" transform="translate(160.59375 0)"/>
     <use xlink:href="#DejaVuSans-4f" transform="translate(224.078125 0)"/>
     <use xlink:href="#DejaVuSans-52" transform="translate(251.859375 0)"/>
     <use xlink:href="#DejaVuSans-5c" transform="translate(313.046875 0)"/>
     <use xlink:href="#DejaVuSans-48" transform="translate(372.234375 0)"/>
     <use xlink:href="#DejaVuSans-48" transform="translate(433.765625 0)"/>
     <use xlink:href="#DejaVuSans-3" transform="translate(495.296875 0)"/>
     <use xlink:href="#DejaVuSans-b" transform="translate(527.078125 0)"/>
     <use xlink:href="#DejaVuSans-45" transform="translate(566.09375 0)"/>
     <use xlink:href="#DejaVuSans-4f" transform="translate(629.578125 0)"/>
     <use xlink:href="#DejaVuSans-58" transform="translate(657.359375 0)"/>
     <use xlink:href="#DejaVuSans-48" transform="translate(720.734375 0)"/>
     <use xlink:href="#DejaVuSans-c" transform="translate(782.265625 0)"/>
     <use xlink:href="#DejaVuSans-3" transform="translate(821.28125 0)"/>
     <use xlink:href="#DejaVuSans-e" transform="translate(853.0625 0)"/>
     <use xlink:href="#DejaVuSans-3" transform="translate(936.859375 0)"/>
     <use xlink:href="#DejaVuSans-32" transform="translate(968.640625 0)"/>
     <use xlink:href="#DejaVuSans-55" transform="translate(1047.359375 0)"/>
     <use xlink:href="#DejaVuSans-4a" transform="translate(1086.71875 0)"/>
     <use xlink:href="#DejaVuSans-3" transform="translate(1150.203125 0)"/>
     <use xlink:href="#DejaVuSans-b" transform="translate(1181.984375 0)"/>
     <use xlink:href="#DejaVuSans-55" transform="translate(1221 0)"/>
     <use xlink:href="#DejaVuSans-48" transform="translate(1259.90625 0)"/>
     <use xlink:href="#DejaVuSans-47" transform="translate(1321.4375 0)"/>
     <use xlink:href="#DejaVuSans-c" transform="translate(1384.921875 0)"/>
     <use xlink:href="#DejaVuSans-3" transform="translate(1423.9375 0)"/>
     <use xlink:href="#DejaVuSans-52" transform="translate(1455.71875 0)"/>
     <use xlink:href="#DejaVuSans-58" transform="translate(1516.90625 0)"/>
     <use xlink:href="#DejaVuSans-57" transform="translate(1580.28125 0)"/>
     <use xlink:href="#DejaVuSans-46" transform="translate(1619.484375 0)"/>
     <use xlink:href="#DejaVuSans-52" transform="translate(1674.46875 0)"/>
     <use xlink:href="#DejaVuSans-50" transform="translate(1735.65625 0)"/>
     <use xlink:href="#DejaVuSans-48" transform="translate(1833.0625 0)"/>
     <use xlink:href="#DejaVuSans-3" transform="translate(1894.59375 0)"/>
     <use xlink:href="#DejaVuSans-46" transform="translate(1926.375 0)"/>
     <use xlink:href="#DejaVuSans-52" transform="translate(1981.359375 0)"/>
     <use xlink:href="#DejaVuSans-10" transform="translate(2044.40625 0)"/>
     <use xlink:href="#DejaVuSans-52" transform="translate(2082.34375 0)"/>
     <use xlink:href="#DejaVuSans-46" transform="translate(2143.53125 0)"/>
     <use xlink:href="#DejaVuSans-46" transform="translate(2198.515625 0)"/>
     <use xlink:href="#DejaVuSans-58" transform="translate(2253.5 0)"/>
     <use xlink:href="#DejaVuSans-55" transform="translate(2316.875 0)"/>
     <use xlink:href="#DejaVuSans-55" transform="translate(2356.234375 0)"/>
     <use xlink:href="#DejaVuSans-48" transform="translate(2395.140625 0)"/>
     <use xlink:href="#DejaVuSans-51" transform="translate(2456.671875 0)"/>
     <use xlink:href="#DejaVuSans-46" transform="translate(2520.046875 0)"/>
     <use xlink:href="#DejaVuSans-48" transform="translate(2575.03125 0)"/>
     <use xlink:href="#DejaVuSans-3" transform="translate(2636.5625 0)"/>
     <use xlink:href="#DejaVuSans-3" transform="translate(2668.34375 0)"/>
     <use xlink:href="#DejaVuSans-b" transform="translate(2700.125 0)"/>
     <use xlink:href="#DejaVuSans-15" transform="translate(2739.140625 0)"/>
     <use xlink:href="#DejaVuSans-18" transform="translate(2802.765625 0)"/>
     <use xlink:href="#DejaVuSans-3" transform="translate(2866.390625 0)"/>
     <use xlink:href="#DejaVuSans-51" transform="translate(2898.171875 0)"/>
     <use xlink:href="#DejaVuSans-52" transform="translate(2961.546875 0)"/>
     <use xlink:href="#DejaVuSans-47" transform="translate(3022.734375 0)"/>
     <use xlink:href="#DejaVuSans-48" transform="translate(3086.21875 0)"/>
     <use xlink:href="#DejaVuSans-56" transform="translate(3147.75 0)"/>
     <use xlink:href="#DejaVuSans-f" transform="translate(3199.84375 0)"/>
     <use xlink:href="#DejaVuSans-3" transform="translate(3231.625 0)"/>
     <use xlink:href="#DejaVuSans-1b" transform="translate(3263.40625 0)"/>
     <use xlink:href="#DejaVuSans-1b" transform="translate(3327.03125 0)"/>
     <use xlink:href="#DejaVuSans-3" transform="translate(3390.65625 0)"/>
     <use xlink:href="#DejaVuSans-48" transform="translate(3422.4375 0)"/>
     <use xlink:href="#DejaVuSans-47" transform="translate(3483.96875 0)"/>
     <use xlink:href="#DejaVuSans-4a" transform="translate(3547.453125 0)"/>
     <use xlink:href="#DejaVuSans-48" transform="translate(3610.9375 0)"/>
     <use xlink:href="#DejaVuSans-56" transform="translate(3672.46875 0)"/>
     <use xlink:href="#DejaVuSans-c" transform="translate(3724.5625 0)"/>
    </g>
   </g>
  </g>
 </g>
 <defs>
  <clipPath id="pd8b3066642">
   <rect x="7.2" y="22.318125" width="770.4" height="611.04"/>
  </clipPath>
 </defs>
</svg>
